<svg width="146" height="146" viewBox="0 0 146 146" fill="none" xmlns="http://www.w3.org/2000/svg">
<g filter="url(#filter0_dd_20_1174)">
<path d="M25 53C25 26.4903 46.4903 5 73 5V5C99.5097 5 121 26.4903 121 53V53C121 79.5097 99.5097 101 73 101V101C46.4903 101 25 79.5097 25 53V53Z" fill="url(#paint0_linear_20_1174)"/>
<path d="M53 35C53 23.9543 61.9543 15 73 15V15C84.0457 15 93 23.9543 93 35V35C93 46.0457 84.0457 55 73 55V55C61.9543 55 53 46.0457 53 35V35Z" fill="white"/>
<path d="M65 35C65 30.5817 68.5817 27 73 27V27C77.4183 27 81 30.5817 81 35V35C81 39.4183 77.4183 43 73 43V43C68.5817 43 65 39.4183 65 35V35Z" fill="#1E90FF"/>
<rect width="6" height="40" transform="translate(70 51)" fill="white"/>
</g>
<g opacity="0.8">
<path d="M33 105C33 100.582 36.5817 97 41 97H105C109.418 97 113 100.582 113 105V105C113 109.418 109.418 113 105 113H41C36.5817 113 33 109.418 33 105V105Z" fill="url(#paint1_linear_20_1174)"/>
</g>
<defs>
<filter id="filter0_dd_20_1174" x="0" y="0" width="146" height="146" filterUnits="userSpaceOnUse" color-interpolation-filters="sRGB">
<feFlood flood-opacity="0" result="BackgroundImageFix"/>
<feColorMatrix in="SourceAlpha" type="matrix" values="0 0 0 0 0 0 0 0 0 0 0 0 0 0 0 0 0 0 127 0" result="hardAlpha"/>
<feOffset dy="20"/>
<feGaussianBlur stdDeviation="12.5"/>
<feColorMatrix type="matrix" values="0 0 0 0 0 0 0 0 0 0 0 0 0 0 0 0 0 0 0.1 0"/>
<feBlend mode="normal" in2="BackgroundImageFix" result="effect1_dropShadow_20_1174"/>
<feColorMatrix in="SourceAlpha" type="matrix" values="0 0 0 0 0 0 0 0 0 0 0 0 0 0 0 0 0 0 127 0" result="hardAlpha"/>
<feOffset dy="8"/>
<feGaussianBlur stdDeviation="5"/>
<feColorMatrix type="matrix" values="0 0 0 0 0 0 0 0 0 0 0 0 0 0 0 0 0 0 0.1 0"/>
<feBlend mode="normal" in2="effect1_dropShadow_20_1174" result="effect2_dropShadow_20_1174"/>
<feBlend mode="normal" in="SourceGraphic" in2="effect2_dropShadow_20_1174" result="shape"/>
</filter>
<linearGradient id="paint0_linear_20_1174" x1="25" y1="53" x2="121" y2="53" gradientUnits="userSpaceOnUse">
<stop stop-color="#1E90FF"/>
<stop offset="1" stop-color="#0066CC"/>
</linearGradient>
<linearGradient id="paint1_linear_20_1174" x1="33" y1="105" x2="113" y2="105" gradientUnits="userSpaceOnUse">
<stop stop-color="#1E90FF"/>
<stop offset="1" stop-color="#0066CC"/>
</linearGradient>
</defs>
</svg>
